HIERARCHY
ROOT Hips
{
	OFFSET 0.000000 0.000000 0.000000
	CHANNELS 6 Xposition Yposition Zposition Zrotation Yrotation Xrotation 
	JOINT LeftUpLeg_virtual
	{
		OFFSET 0.000000 0.000000 0.000000
		CHANNELS 3 Zrotation Yrotation Xrotation
		JOINT LeftUpLeg
		{
			OFFSET 8.479694 -4.795517 -0.379053
			CHANNELS 3 Zrotation Yrotation Xrotation
			JOINT LeftLeg
			{
				OFFSET 0.485052 -32.551468 0.112863
				CHANNELS 3 Zrotation Yrotation Xrotation
				JOINT LeftFoot
				{
					OFFSET 0.438033 -32.635670 -3.012641
					CHANNELS 3 Zrotation Yrotation Xrotation
					JOINT LeftToeBase
					{
						OFFSET 0.970169 -13.225353 11.864223
						CHANNELS 3 Zrotation Yrotation Xrotation
						End Site
						{
							OFFSET 0.000000 0.000000 0.000000
						}
					}
				}
			}
		}
	}
	JOINT RightUpLeg_virtual
	{
		OFFSET 0.000000 0.000000 0.000000
		CHANNELS 3 Zrotation Yrotation Xrotation
		JOINT RightUpLeg
		{
			OFFSET -8.479694 -4.795517 -0.379053
			CHANNELS 3 Zrotation Yrotation Xrotation
			JOINT RightLeg
			{
				OFFSET -0.484100 -32.551483 0.112903
				CHANNELS 3 Zrotation Yrotation Xrotation
				JOINT RightFoot
				{
					OFFSET -0.438985 -32.635651 -3.012681
					CHANNELS 3 Zrotation Yrotation Xrotation
					JOINT RightToeBase
					{
						OFFSET -0.970169 -13.225354 11.864223
						CHANNELS 3 Zrotation Yrotation Xrotation
						End Site
						{
							OFFSET 0.000000 0.000000 0.000000
						}
					}
				}
			}
		}
	}
	JOINT Spine_virtual
	{
		OFFSET 0.000000 0.000000 0.000000
		CHANNELS 3 Zrotation Yrotation Xrotation
		JOINT Spine
		{
			OFFSET 0.000000 7.722015 1.166203
			CHANNELS 3 Zrotation Yrotation Xrotation
			JOINT Spine1
			{
				OFFSET 0.000000 12.024086 0.248766
				CHANNELS 3 Zrotation Yrotation Xrotation
				JOINT Spine2
				{
					OFFSET -0.000000 11.503036 -0.491240
					CHANNELS 3 Zrotation Yrotation Xrotation
					JOINT Neck_virtual
					{
						OFFSET 0.000000 0.000000 0.000000
						CHANNELS 3 Zrotation Yrotation Xrotation
						JOINT Neck
						{
							OFFSET 0.000000 18.430687 -3.123054
							CHANNELS 3 Zrotation Yrotation Xrotation
							JOINT Head
							{
								OFFSET -0.000000 9.051071 1.034021
								CHANNELS 3 Zrotation Yrotation Xrotation
								End Site
								{
									OFFSET 0.000000 0.000000 0.000000
								}
							}
						}
					}
					JOINT LeftShoulder_virtual
					{
						OFFSET 0.000000 0.000000 0.000000
						CHANNELS 3 Zrotation Yrotation Xrotation
						JOINT LeftShoulder
						{
							OFFSET 6.197824 13.665230 -4.064723
							CHANNELS 3 Zrotation Yrotation Xrotation
							JOINT LeftArm
							{
								OFFSET 7.778132 -0.187073 -1.709282
								CHANNELS 3 Zrotation Yrotation Xrotation
								JOINT LeftForeArm
								{
									OFFSET 21.954697 0.000000 -2.041093
									CHANNELS 3 Zrotation Yrotation Xrotation
									JOINT LeftHand
									{
										OFFSET 22.992908 0.000000 -0.870901
										CHANNELS 3 Zrotation Yrotation Xrotation
										End Site
										{
											OFFSET 0.000000 0.000000 0.000000
										}
									}
								}
							}
						}
					}
					JOINT RightShoulder_virtual
					{
						OFFSET 0.000000 0.000000 0.000000
						CHANNELS 3 Zrotation Yrotation Xrotation
						JOINT RightShoulder
						{
							OFFSET -6.197824 13.665230 -4.064723
							CHANNELS 3 Zrotation Yrotation Xrotation
							JOINT RightArm
							{
								OFFSET -7.778132 -0.187073 -1.709282
								CHANNELS 3 Zrotation Yrotation Xrotation
								JOINT RightForeArm
								{
									OFFSET -21.954697 0.000000 -2.041093
									CHANNELS 3 Zrotation Yrotation Xrotation
									JOINT RightHand
									{
										OFFSET -22.992908 0.000000 -0.870901
										CHANNELS 3 Zrotation Yrotation Xrotation
										End Site
										{
											OFFSET 0.000000 0.000000 0.000000
										}
									}
								}
							}
						}
					}
				}
			}
		}
	}
}
MOTION
Frames: 11
Frame Time: 0.033333
-41.940098 33.290466 50.313534 1.649148 85.033786 1.549993 2.516716 2.749477 -9.859387 -14.605449 31.410718 -84.357522 9.330216 -1.272839 110.964592 -4.512248 -21.584137 -2.323609 0.000000 0.000000 0.000000 -3.373303 11.331418 -3.603075 36.599005 -25.384029 -88.656224 -6.498455 -3.451646 104.689335 -3.256644 27.256276 7.130963 0.000000 0.000000 0.000000 0.841470 13.340473 -6.240044 -1.960853 -3.959193 -2.766075 0.946874 -3.923419 7.805900 0.050052 0.047075 0.032217 -0.016500 -2.906075 14.894768 2.194929 -14.459575 -0.639413 0.000000 0.000000 0.000000 4.114168 -2.056155 8.234771 -11.615594 -17.876622 7.788987 -11.899416 -58.022389 -14.526887 -11.740529 -30.386559 6.828965 0.000000 0.000000 0.000000 -3.092471 0.139866 8.513611 37.688875 2.108499 -10.453244 39.040982 31.927992 17.329962 3.986466 42.920601 6.501218 0.000000 0.000000 0.000000 
-42.221855 33.068169 50.178276 2.849646 84.350726 2.714686 2.412381 2.544458 -10.236823 -14.345858 31.460500 -84.334600 9.238606 -1.380973 111.150243 -4.378121 -21.496504 -2.722293 0.000000 0.000000 0.000000 -3.389525 11.050788 -4.112956 36.195898 -25.281792 -88.396192 -6.694601 -3.695719 104.876926 -3.095501 27.368554 8.017449 0.000000 0.000000 0.000000 0.550074 13.117984 -7.021191 -2.165403 -3.946561 -2.750477 0.826348 -4.055512 7.868357 0.070476 -0.019188 -0.024841 -0.143430 -2.933498 14.977836 1.974443 -14.195521 -0.142691 0.000000 0.000000 0.000000 3.968895 -1.997460 8.239623 -11.241243 -17.876622 7.820291 -9.939197 -58.388972 -16.103559 -11.721767 -28.222992 7.106370 0.000000 0.000000 0.000000 -3.194496 0.239311 8.462051 38.594202 2.780111 -9.801735 38.268754 33.630035 16.686639 3.936173 41.619683 7.062028 0.000000 0.000000 0.000000 
-42.567776 32.858238 50.048473 2.640002 83.750817 2.530147 2.245057 2.277440 -10.625589 -14.131722 31.621228 -84.571006 9.178237 -1.392796 111.278747 -4.357984 -21.441801 -2.762266 0.000000 0.000000 0.000000 -3.261700 10.953789 -4.456290 35.914945 -25.215986 -88.292448 -6.837074 -3.919408 104.796747 -2.895217 27.637877 8.580473 0.000000 0.000000 0.000000 0.372880 13.047867 -7.761399 -2.369551 -3.840210 -2.792653 0.725964 -4.107492 7.897726 0.017759 0.008659 0.007199 -0.126335 -2.964930 14.960054 1.727371 -13.729075 0.445142 0.000000 0.000000 0.000000 4.014106 -2.115773 8.192800 -11.055511 -17.871801 7.881047 -8.625066 -58.851540 -17.457450 -11.652444 -26.034419 7.454701 0.000000 0.000000 0.000000 -3.136174 0.031609 8.394982 39.325248 3.199118 -9.121549 38.023479 35.315667 16.131741 3.966527 40.447079 7.583545 0.000000 0.000000 0.000000 
-42.958454 32.687653 49.934631 2.913761 83.351640 2.814693 1.932435 2.083974 -10.946473 -13.967925 31.964746 -84.874294 9.080423 -1.251312 111.101148 -4.727096 -21.642863 -2.410355 0.000000 0.000000 0.000000 -3.150857 10.900863 -5.108060 35.380226 -25.086692 -88.025736 -6.914698 -4.081996 104.788530 -2.600560 27.972311 9.159739 0.000000 0.000000 0.000000 0.171833 12.939764 -8.367170 -2.656366 -3.731932 -2.850668 0.671483 -4.208348 7.891916 0.030124 0.006873 -0.008807 -0.222571 -3.126893 14.912139 1.426151 -13.234293 1.057188 0.000000 0.000000 0.000000 3.925703 -2.244926 8.141193 -11.034703 -17.702194 7.973071 -8.064880 -59.339878 -18.475920 -11.489523 -24.228918 7.880737 0.000000 0.000000 0.000000 -3.144498 -0.086692 8.319409 39.655286 3.404198 -8.432628 38.384946 36.503564 15.833639 4.194204 39.598145 8.201105 0.000000 0.000000 0.000000 
-43.364670 32.557621 49.867786 2.644775 83.037192 2.537091 1.680352 2.085819 -11.135157 -13.781381 32.409405 -85.346841 8.890317 -1.084054 111.200124 -5.530443 -22.180408 -1.895209 0.000000 0.000000 0.000000 -3.218773 10.705145 -5.443248 34.433487 -24.769994 -87.826766 -6.892484 -3.947593 104.544549 -2.528937 28.061103 9.592425 0.000000 0.000000 0.000000 0.029051 12.924878 -8.863170 -2.988847 -3.580909 -2.909042 0.633740 -4.309048 7.865137 0.047879 0.007394 -0.028053 -0.244302 -3.221959 14.812829 1.125253 -12.746615 1.629097 0.000000 0.000000 0.000000 3.904328 -2.321550 8.096890 -11.024840 -17.398867 8.033398 -8.858042 -59.768363 -18.357928 -11.302533 -23.133074 8.422529 0.000000 0.000000 0.000000 -3.118385 -0.211790 8.259468 39.617655 3.354479 -7.783881 39.594282 37.128546 16.346851 4.342464 39.124474 8.511300 0.000000 0.000000 0.000000 
-43.780212 32.469219 49.843857 2.312295 82.933837 2.339635 1.661924 1.944574 -11.227039 -13.420864 32.756358 -85.951606 8.449787 -1.026595 111.747926 -6.537928 -23.061796 -1.569266 0.000000 0.000000 0.000000 -3.379600 10.527940 -5.435980 33.634887 -24.254644 -88.182243 -6.840515 -3.711739 105.112465 -2.851051 28.195974 8.883353 0.000000 0.000000 0.000000 -0.088232 12.881750 -9.338759 -3.376288 -3.345180 -2.975596 0.543070 -4.373294 7.826559 0.101409 0.004835 0.010832 -0.268975 -3.384788 14.679842 0.884841 -12.359133 2.161840 0.000000 0.000000 0.000000 3.856127 -2.371247 8.041067 -11.028016 -16.978455 8.061809 -10.950310 -60.098343 -16.981602 -11.299348 -22.844490 8.900976 0.000000 0.000000 0.000000 -3.170742 -0.322631 8.129244 39.158359 3.036848 -7.293832 41.687366 37.109186 17.753309 4.411717 39.062566 8.593883 0.000000 0.000000 0.000000 
-44.201645 32.409351 49.853409 1.078554 83.157253 1.129548 1.743513 1.613082 -11.332011 -12.805648 33.104168 -86.511654 8.191961 -1.213309 113.135513 -7.454723 -23.648890 -1.699928 0.000000 0.000000 0.000000 -3.593810 10.242846 -5.497714 32.863711 -23.825243 -88.461297 -6.698019 -3.274419 107.002003 -3.419913 28.548471 7.138160 0.000000 0.000000 0.000000 -0.028814 12.689533 -9.566871 -3.771780 -3.069215 -2.965539 0.459552 -4.436386 7.813546 -0.006084 -0.018312 0.012073 -0.321366 -3.384775 14.615051 0.566520 -11.966473 2.566278 0.000000 0.000000 0.000000 3.848816 -2.414074 8.050397 -10.878694 -16.405708 8.153561 -14.416934 -60.366783 -13.837699 -11.216331 -23.320605 9.594899 0.000000 0.000000 0.000000 -3.196317 -0.371162 8.080967 38.344730 2.526745 -6.924379 44.389997 36.531311 19.600184 4.540659 39.283614 8.579857 0.000000 0.000000 0.000000 
-44.635742 32.375458 49.878418 -0.094556 83.539928 -0.188872 2.069104 1.365611 -11.469097 -12.563729 33.529802 -87.016931 7.906606 -1.514727 114.848975 -8.026483 -23.512137 -1.934096 0.000000 0.000000 0.000000 -3.767026 9.854415 -5.510349 32.193035 -23.548488 -88.871683 -6.499266 -2.745025 110.014007 -3.812667 28.854496 4.876061 0.000000 0.000000 0.000000 0.049686 12.467815 -9.522847 -4.110917 -2.718982 -2.816125 0.403281 -4.438763 7.865806 -0.008938 -0.020769 0.017504 -0.440042 -3.443708 14.445597 0.352944 -11.811792 2.807552 0.000000 0.000000 0.000000 3.760729 -2.448922 7.969133 -10.448673 -15.806863 8.201041 -18.332052 -60.551212 -9.786629 -11.198858 -24.291563 10.186545 0.000000 0.000000 0.000000 -3.333556 -0.357792 7.955605 37.301504 1.764499 -6.583072 47.512230 35.580460 21.606861 4.693176 39.731385 8.456202 0.000000 0.000000 0.000000 
-45.055096 32.372158 49.868313 0.035985 83.987769 0.054854 2.226351 1.070730 -11.699300 -12.261276 33.982800 -87.570224 7.841049 -1.546612 116.366944 -8.150992 -23.350460 -2.058712 0.000000 0.000000 0.000000 -3.945087 9.687341 -5.759600 31.805869 -23.418639 -89.683000 -6.347211 -2.372873 113.150895 -4.197912 29.137266 3.376673 0.000000 0.000000 0.000000 0.017674 12.211047 -9.541433 -4.514379 -2.339588 -2.727869 0.299254 -4.405403 7.901238 0.012087 -0.003688 0.011581 -0.556571 -3.488581 14.405361 0.178753 -11.715959 2.875433 0.000000 0.000000 0.000000 3.682796 -2.450894 8.042154 -9.856920 -15.133963 8.090165 -22.300808 -60.787099 -5.347527 -11.350442 -25.448815 10.658957 0.000000 0.000000 0.000000 -3.456780 -0.371867 8.031901 36.012463 1.040059 -6.422997 50.842395 34.382879 23.583474 4.715036 40.318969 8.138586 0.000000 0.000000 0.000000 
-45.408440 32.402588 49.846115 1.067039 84.703614 0.983927 2.357903 0.668675 -11.828960 -11.978746 34.383729 -87.799240 7.603487 -1.901233 117.971273 -8.329278 -23.320317 -2.560451 0.000000 0.000000 0.000000 -3.930222 9.254135 -5.931232 31.656732 -23.341133 -90.367917 -6.283932 -2.218458 115.838697 -4.508701 29.394498 2.795189 0.000000 0.000000 0.000000 -0.045373 11.873088 -9.355103 -4.884635 -1.965142 -2.476948 0.196695 -4.381851 8.013708 0.004133 -0.006591 -0.004786 -0.611470 -3.409586 14.347822 0.080989 -11.822552 2.836026 0.000000 0.000000 0.000000 3.651543 -2.457465 8.073110 -9.066537 -14.428317 7.908549 -25.832161 -61.125357 -1.120345 -11.533007 -26.550718 10.904932 0.000000 0.000000 0.000000 -3.546676 -0.403383 8.086782 34.635814 0.296903 -6.429054 54.092930 33.159308 25.253252 4.763353 40.957076 7.847063 0.000000 0.000000 0.000000 
-45.665703 32.458748 49.807861 0.774258 85.450072 0.746767 2.682225 0.165667 -11.976593 -11.553582 34.762924 -87.917321 7.307717 -2.284784 119.331437 -8.644894 -23.510572 -3.190646 0.000000 0.000000 0.000000 -3.743373 8.740105 -6.118692 31.589693 -23.211643 -90.912618 -6.323941 -2.296982 117.928462 -4.682318 29.728385 2.747506 0.000000 0.000000 0.000000 -0.057338 11.480026 -9.279944 -5.143669 -1.574426 -2.264393 0.072533 -4.330872 8.102944 0.021707 0.020242 0.008484 -0.762412 -3.457659 14.331834 0.019239 -12.041625 2.686261 0.000000 0.000000 0.000000 3.512332 -2.513773 8.178695 -8.182607 -13.746239 7.799559 -28.788711 -61.594468 2.842249 -11.564150 -27.567530 10.939872 0.000000 0.000000 0.000000 -3.725768 -0.369514 8.103716 33.268526 -0.687131 -6.624127 57.150754 32.098822 26.767317 4.705088 41.630765 7.448527 0.000000 0.000000 0.000000 
